<?xml version="1.0" encoding="utf-8"?>
<!-- Generator: Adobe Illustrator 23.0.6, SVG Export Plug-In . SVG Version: 6.00 Build 0)  -->
<svg version="1.1" id="Capa_1" xmlns="http://www.w3.org/2000/svg" xmlns:xlink="http://www.w3.org/1999/xlink" x="0px" y="0px"
	 viewBox="0 0 132 22" style="enable-background:new 0 0 132 22;" xml:space="preserve">
<style type="text/css">
	.st0{filter:url(#Adobe_OpacityMaskFilter);}
	.st1{fill-rule:evenodd;clip-rule:evenodd;fill:#FFFFFF;}
	.st2{mask:url(#mask-2_1_);fill-rule:evenodd;clip-rule:evenodd;fill:#EA1C24;}
	.st3{fill-rule:evenodd;clip-rule:evenodd;fill:#EA1C24;}
	.st4{filter:url(#Adobe_OpacityMaskFilter_1_);}
	.st5{mask:url(#mask-6_1_);fill-rule:evenodd;clip-rule:evenodd;fill:#EA1C24;}
</style>
<title>Logo Florencia</title>
<g id="Symbols">
	<g id="Header-normal-web" transform="translate(-61.000000, -28.000000)">
		<g id="Logo-Florencia" transform="translate(61.000000, 28.000000)">
			<g id="Group-3" transform="translate(24.000000, 1.000000)">
				<g id="Clip-2">
				</g>
				<defs>
					<filter id="Adobe_OpacityMaskFilter" filterUnits="userSpaceOnUse" x="0" y="0.1" width="15.9" height="20.9">
						<feColorMatrix  type="matrix" values="1 0 0 0 0  0 1 0 0 0  0 0 1 0 0  0 0 0 1 0"/>
					</filter>
				</defs>
				<mask maskUnits="userSpaceOnUse" x="0" y="0.1" width="15.9" height="20.9" id="mask-2_1_">
					<g class="st0">
						<polygon id="path-1_1_" class="st1" points="0,0.1 15.9,0.1 15.9,21 0,21 						"/>
					</g>
				</mask>
				<path id="Fill-1" class="st2" d="M9.9,0.2L5.5,0.3L3,0.4L1.7,0.3L1.1,0.2c0,0,0,0-0.1,0c0,0-0.1,0-0.1,0C0.3,0.4,0.2,0.6,0.2,1
					l0,0.2L0,2.4c0,0.6,0.2,1,0.5,1.3l1.1,0.4l0.3,0c0,0,0.7,0,0.7,0.1l0,0.2c0,0,0,1.9,0,1.9l0,1.2l-0.1,3.4l-0.2,2.4l-0.2,2.1
					l-0.1,1.9l0,0.2c0,0.6,0,1.5,0.5,2.1c0.6,0.7,1.2,1,2.1,1.3l0.6,0.1L5.8,21L7,20.9c0,0,1.2-0.8,1.2-0.8c0.1-0.1,0.1-0.2,0.1-0.4
					c0-0.3-0.3-0.6-0.5-0.8c-0.2-0.4-0.2-0.9-0.2-1.4l0-0.3l-0.1-3.6l0-0.7c0,0,0-0.2,0-0.2c0,0,0-0.2,0-0.3c0-0.1,0-0.2,0-0.2
					c0,0,0.6,0,0.6,0l0.3,0l1.2-0.1l0.9-0.1l0.5,0l1.6,0c0.4,0.1,1,0.2,1.4-0.1c0.4-0.3,0.3-0.8,0.3-1l0-0.5c0-0.7,0-1.5-0.4-1.9
					C13.4,8,13.1,8,12.5,8l-0.4,0l-0.6,0L9.3,8.2L8.8,8.3c0,0-0.6,0-1,0c0-0.1,0-0.1,0-0.2l0.1-0.7C7.8,7.4,8,6,8,5.9l0.1-0.8l0-0.2
					l0.1-0.4c0,0,0-0.2-0.1-0.3c0.1,0,0.3-0.1,0.3-0.1l1.3,0C11.4,4,13,3.9,14.3,4.5c0.3,0.1,0.6,0.1,0.9-0.1
					c0.5-0.4,0.7-1.3,0.7-1.7l0-0.2l-0.3-1l-0.2-0.2l-0.8-0.6C13.1,0.1,11.5,0.1,9.9,0.2"/>
			</g>
			<path class="st3" d="M114.4,4.6c1.5,0.2,2.8-0.6,3-1.7c0.2-1.2-0.9-2.3-2.4-2.5c-1.5-0.2-2.8,0.6-3,1.7
				C111.9,3.3,112.9,4.4,114.4,4.6z M131.4,14.1c-0.6-0.3-1.3,0.5-2.3,1.7l-0.6,0.6c-0.3,0.2-0.5,0.2-0.5,0.2
				c-0.3-0.2-0.4-1.5-0.1-3.4l0.5-2.9l0.2-0.6c0.2-0.7,0.4-1.4,0.1-2c-0.6-1.3-2.1-0.9-2.7-0.7l-0.2,0c-0.7,0.2-0.9,0.3-1.6-0.1
				c-1.6-0.9-3.6-0.7-4.9,0.6c-1.5,1.4-1.9,2.8-2.2,4.6l-0.1,1.3c0,1.2,0,2.8-0.8,3.2c-0.3,0.1-0.5,0.2-0.6,0.1
				c-0.4-0.3-0.5-1.4-0.4-3.3l0-0.3c0-1.2,0.3-2.3,0.6-3.5l0.3-1.2l0.1-0.2c0.1-0.2,0.3-0.8-0.3-1.2l-1.2-0.6
				c-0.7-0.2-1.8-0.4-2.6-0.1c-1.3,0.5-1.3,2-1.3,3.2l-0.1,1.3l-0.2,1.8l0,1c0,0.2-0.7,0.7-1,0.9l-0.4,0.3c-1.2,0.9-2.7,2.1-4,1.3
				c-0.9-0.5-1.1-1.4-1.1-2.3c0-0.6,0.1-1.2,0.2-1.8c0.1-0.5,0.7-2.5,1.1-3.2c0,0.1,0,0.1,0,0.1c0,0.3,0,0.6,0,0.8l0,1
				c0.2,0.9,0.3,2,1.5,2.1c0.2,0,2.3-0.1,2.6-0.4c0.4-0.4,0.3-1.2,0.1-2.1l-0.1-0.5l0-0.5c0-1-0.1-1.9-0.6-2.2
				c-0.8-0.5-1.7-0.7-2.5-0.7c-1.2-0.1-3.4,0-4.9,1.2c-1.4,1.2-1.7,4.3-1.8,4.7l0,0.9c0,0.5,0.1,1.3-0.1,1.6c-0.2,0.3-1,1-1.4,1.2
				c-0.5,0.3-0.9,0.3-1.2,0.2c-0.4-0.3-0.6-1.2-0.6-2.6c0.1-1.4,0.4-2.6,0.9-3.8l0.3-1c0.4-1.2-0.5-1.7-1.1-2.2
				c-1-0.6-1.8-0.3-2.6,0c-1.2,0.5-1.7,1.9-2.1,3.1l-0.5,1.3l-0.9,1.8c0,0-0.2,0.4-0.3,0.7c0-0.2,0.2-1.3,0.2-1.3l0-0.3
				c0.1-1.1,0.2-2,0.5-3c0.1-0.3,0.2-0.6,0.2-0.8c0-0.3-0.1-0.5-0.2-0.7c-0.4-0.6-1.3-0.6-2.2-0.5l-0.7,0c-0.7-0.1-1.7-0.2-2,1.2
				l-0.1,2.9l0,2.1c-0.1,0.7-0.2,0.8-0.7,1.3l-0.2,0.2l-1.9,1.4c-1.2,0.7-2.9,1.2-4.1,0c-0.3-0.3-0.3-0.5-0.3-0.6
				c0-0.1,0.2-0.1,0.4-0.2l0.7,0c0.5,0,1,0.1,1.5-0.2c1.1-0.5,3-1.6,3.5-3.6c0.5-2.2-1-4-2.8-4.7c-1.4-0.6-3.7,0-4.9,0.3
				c-1.9,0.6-2.3,2.5-2.7,4.1c0,0.1-0.4,2.7-0.4,2.7c0,0.5-0.3,0.8-0.7,1.2L73,15.3c-0.7,0.7-1.7,1.5-2.4,1.4
				c-0.1,0-0.4-0.1-0.6-0.6c-0.6-1.4,0.1-2.9,0.8-4.3l0.1-0.2l0.4-0.7c0.4-0.6,0.8-1.4,0.9-2c0.1-1-0.6-1.3-1.2-1.5l-0.4-0.2
				c-1.1-0.5-1.4-0.4-2.3,0l-0.2,0.1c-0.9,0.4-1.7,0.6-1.9,0.5c0-0.1,0.1-0.5,0.2-0.7L66.6,6c-0.4-1-1.9-0.9-2.5-0.6
				c-1.2,0.4-1.3,1.7-1.3,2.6l0,0.3l0,0.8l0.2,0.8l0.1,0.3c0.1,0.7-0.1,1.5-0.5,2.1c-0.4,0.5-0.8,0.5-1.5,0.6l-0.2,0l-0.3,0
				c0-0.1,0.1-0.5,0.1-0.7l0.2-0.7c0.1-0.6,0.2-1.6-0.1-2.3c-0.4-1-1.2-1.9-2.2-2.3c-0.8-0.3-1.6-0.2-2.3,0.2
				c-0.4,0.3-1,0.2-1.6,0.1c-1-0.1-2.2-0.2-2.8,1.3c-0.7,1.7-1.1,3.2-1.2,5.1c-0.1,0.9-2.3,2.5-3.3,2.9c-0.6,0.2-1.3,0.1-1.9-0.3
				c-0.3-0.2-0.6-0.7-0.5-1.4c0.1-0.7,1-1.7,1.7-2.5l1.1-1.2c1.2-1.7,1.8-3.2,2-4.6c0.1-1.4,0-3.3-1.2-5c-0.9-1.3-3.2-1.4-4.9-1.2
				c-1.9,0.2-2.3,2.2-2.6,3.7l-0.1,0.6c-0.3,1.6-0.7,3.3-0.7,5l0.1,3.6l0.1,1.6c0.1,2.2,0.8,3.6,2.3,4.4c1.4,0.7,3.5,1.1,5.1,0.2
				c1.1-0.6,1.9-1.6,2.7-2.5c0,0,0.1-0.1,0.1-0.2c0.3,1,0.7,1.8,1.4,2.4c0.9,0.7,2.2,1,3.6,0.7c2.7-0.4,3.8-2.8,4.4-4.9
				c1.1,0.3,2.3,0.2,3.3-0.3c1.1-0.6,2-1.6,2.4-3c0,0,0.2-0.7,0.2-0.7c0,0,0.4,0,0.4,0l0.5-0.1c0.4-0.1,0.4-0.1,0.5,0.1
				c0.1,0.4-0.3,1.2-0.6,1.8L66,13.9c-0.7,3,0.4,5.2,2.8,5.8c2.5,0.6,4.3-1.2,5.6-2.5c1.2,2,3.7,2.8,5.7,2.4
				c1.2-0.2,2.4-0.5,3.5-1.4l0.8-0.5c0.4-0.2,0.7-0.4,1.1-0.7c0,0.9,0.2,1.9,1,2.5c0.6,0.4,1.6,0.6,2.4,0.4c0.5-0.1,0.8-0.4,1-0.8
				l0.6-1.6l0.8-1.9l0.5-1c0.2-0.4,0.3-0.7,0.5-1.1c0,0.4-0.1,0.9-0.2,1.4L92,16.1c0,0,0,0.1,0,0.1c0,1.2,0.6,2.7,1.9,3.2
				c2,0.9,4.5-0.3,5.9-2c0.3,0.6,0.7,1.1,1.3,1.5c1.2,0.8,3,1.1,4.4,0.8c1.5-0.3,2.6-0.8,3.4-1.3l1.4-1.4c0,0,0.2-0.2,0.4-0.5
				c0.3,1.3,0.9,2.6,2.7,3.2c1.5,0.4,3.4-0.4,4.3-1.6c0.8,1,2,1.6,3.4,1.6c1.5,0,2.5-1,3.3-2c0,0.1,0.1,0.2,0.1,0.2
				c0.2,0.5,0.4,1.2,1.1,1.5c0.8,0.4,1.7,0.1,2.4-0.1c1.7-0.6,3.6-2.1,3.8-4C131.8,15,131.9,14.3,131.4,14.1z M44.8,6.9
				c0-0.3,0.1-0.5,0.1-0.8C45,5.5,45,4.9,45.1,4.4c0,0,0-0.1,0-0.1c0.2-1.3,0.4-1.6,0.5-1.7c0,0,0,0,0,0c0.9,1.2,0.6,3.8,0.5,4.7
				c-0.2,1.3-0.7,2.4-1.7,3.7C44.5,9.7,44.6,8.3,44.8,6.9z M57.9,14c-0.1,0.7-0.3,1.4-0.7,2c-0.4,0.6-1,1.3-1.5,1.3c0,0,0,0,0,0
				c-0.2,0-0.4-0.1-0.5-0.3c-0.6-0.7-0.4-2.7-0.3-3.7c0-0.2,0-0.3,0-0.4c0.1-0.8,0.3-1.7,0.5-2.4c0-0.1,0-0.2,0.1-0.3
				c0.1-0.3,0.1-0.5,0.2-0.8c0,0,0-0.1,0.1-0.1c0,0,0,0.1,0,0.1c0.1,1.5,0.9,3.3,2.2,4.4L57.9,14z M58.5,11.7
				c-0.2-0.5-0.5-1.1-0.7-1.5c-0.3-0.6-0.4-1.1,0.4-0.9C59.2,9.5,58.9,11.1,58.5,11.7z M78.4,13.2c0-0.5,0.2-1.1,0.3-1.6
				c0.3-1.1,0.7-2.5,1.2-3.1c0.2,0.1,0.4,0.2,0.5,0.2c0.1,0.1,0.1,0.4,0.1,0.5c0,0.1,0,0.1,0,0.2c0.1,0.5,0.1,1,0,1.5l0,0.1
				c-0.1,0.8-0.7,2.3-1.4,2.5c-0.1,0-0.1,0-0.1,0c-0.1,0-0.1,0-0.2,0c-0.1,0-0.1,0-0.2-0.1c-0.1,0-0.1,0-0.2,0c0,0-0.1,0-0.1,0
				C78.4,13.3,78.4,13.3,78.4,13.2z M123.9,10.3c0,0.1,0,0.1,0,0.2c0,0.1,0,0.2,0,0.3c0,0.1,0,0.1,0,0.2c-0.1,0.6-0.2,1.3-0.3,1.9
				c0,0.2,0,0.5,0,0.7c0,0.2,0,0.5,0,0.7c0,0.1,0,0.2,0,0.3c0,0.2-0.1,0.4-0.1,0.6c0,0.1,0,0.1,0,0.2c0,0.2,0,0.4-0.1,0.5
				c0,0,0,0.1,0,0.1c0,0,0,0.1,0,0.1l-0.2,0.1c-0.1,0.1-0.1,0.1-0.2,0.2c-0.1,0-0.1,0.1-0.2,0.1c0,0-0.1,0-0.1,0.1
				c0,0-0.1,0.1-0.2,0.1l-0.2,0l-0.2,0c0,0-0.1-0.1-0.1-0.1c-0.2-0.2-0.2-0.3-0.3-0.6c-0.2-0.5-0.2-1-0.2-1.3c0-0.1,0-0.2,0-0.3
				c0-0.4,0.1-0.8,0.1-1.2c0.1-0.5,0.2-1,0.3-1.7c0.1-0.5,0.3-0.9,0.4-1.3c0-0.1,0.1-0.2,0.1-0.3c0.1-0.4,0.3-0.8,0.6-1
				c0,0,0,0,0.1,0c0.1,0,0.2,0,0.3,0.1l0.1,0l0,0c0.2,0.1,0.6,0.5,0.7,0.7C123.9,9.8,123.9,10.1,123.9,10.3z"/>
			<path id="Fill-7" class="st3" d="M7.5,8.8C7.4,8.9,7.3,9.1,7.2,9.2C7.1,9.3,6.9,9.4,6.8,9.5c-0.7,0.5-1.5,0.8-2.3,0.8
				c-0.8,0-1.7-0.3-2.3-0.8C2.1,9.4,1.9,9.3,1.8,9.2C1.1,8.5,0.7,7.5,0.7,6.5V2.7h3.8c1,0,2,0.4,2.7,1.1C7.3,3.9,7.4,4,7.5,4.2
				C8.5,5.5,8.5,7.5,7.5,8.8 M8,3.7C7.9,3.6,7.8,3.4,7.7,3.3C6.8,2.4,5.7,2,4.5,2h0H0v4.5l0,0c0,1.1,0.4,2.3,1.3,3.2
				C1.4,9.8,1.6,9.9,1.7,10c1.6,1.3,4,1.3,5.6,0c0.1-0.1,0.3-0.2,0.4-0.3C7.8,9.6,7.9,9.4,8,9.3C9.3,7.7,9.3,5.3,8,3.7"/>
			<path id="Fill-9" class="st3" d="M16.3,18.3h-3.8c-1,0-2-0.4-2.7-1.1c-0.1-0.1-0.2-0.2-0.3-0.3c-1.1-1.4-1.1-3.3,0-4.7
				c0.1-0.1,0.2-0.2,0.3-0.3c0.1-0.1,0.2-0.2,0.3-0.3c0.7-0.5,1.5-0.8,2.3-0.8c0.8,0,1.7,0.3,2.3,0.8c0.1,0.1,0.2,0.2,0.3,0.3
				c0.7,0.7,1.1,1.7,1.1,2.7V18.3z M17,14.5c0-1.1-0.4-2.3-1.3-3.2c-0.1-0.1-0.3-0.2-0.4-0.3c-1.6-1.3-4-1.3-5.6,0
				c-0.1,0.1-0.3,0.2-0.4,0.3c-0.1,0.1-0.2,0.3-0.3,0.4c-1.3,1.6-1.3,4,0,5.6c0.1,0.1,0.2,0.3,0.3,0.4c0.9,0.9,2,1.3,3.2,1.3h0H17
				V14.5L17,14.5z"/>
			<path id="Fill-11" class="st3" d="M7.5,16.8c-0.1,0.1-0.2,0.2-0.3,0.3c-0.7,0.7-1.7,1.1-2.7,1.1h0H0.7v-3.8c0-1,0.4-2,1.1-2.7
				c0.1-0.1,0.2-0.2,0.3-0.3c0.7-0.5,1.5-0.8,2.3-0.8c0.8,0,1.7,0.3,2.3,0.8c0.1,0.1,0.2,0.2,0.3,0.3c0.1,0.1,0.2,0.2,0.3,0.3
				C8.5,13.5,8.5,15.5,7.5,16.8 M8,11.7c-0.1-0.1-0.2-0.3-0.3-0.4c-0.1-0.1-0.3-0.2-0.4-0.3c-1.6-1.3-4-1.3-5.6,0
				c-0.1,0.1-0.3,0.2-0.4,0.3c-0.9,0.9-1.3,2-1.3,3.2l0,0V19h4.5h0c1.1,0,2.3-0.4,3.2-1.3c0.1-0.1,0.2-0.3,0.3-0.4
				C9.3,15.7,9.3,13.3,8,11.7"/>
			<g id="Group-15" transform="translate(8.000000, 2.000000)">
				<g id="Clip-14">
				</g>
				<defs>
					<filter id="Adobe_OpacityMaskFilter_1_" filterUnits="userSpaceOnUse" x="0.3" y="0" width="8.5" height="8.8">
						<feColorMatrix  type="matrix" values="1 0 0 0 0  0 1 0 0 0  0 0 1 0 0  0 0 0 1 0"/>
					</filter>
				</defs>
				<mask maskUnits="userSpaceOnUse" x="0.3" y="0" width="8.5" height="8.8" id="mask-6_1_">
					<g class="st4">
						<polygon id="path-5_1_" class="st1" points="0.3,0 8.8,0 8.8,8.8 0.3,8.8 						"/>
					</g>
				</mask>
				<path id="Fill-13" class="st5" d="M8.1,4.4c0,1-0.4,1.9-1,2.6C7,7.1,6.9,7.2,6.8,7.3C6.1,7.8,5.4,8.1,4.6,8.1S3,7.8,2.4,7.3
					C2.3,7.2,2.1,7.1,2,7C1.9,6.9,1.9,6.8,1.8,6.7c-1-1.4-1-3.2,0-4.6C1.9,2,1.9,1.9,2,1.8c0.7-0.7,1.6-1.1,2.5-1.1h3.6V4.4z M4.6,0
					L4.6,0c-1.1,0-2.2,0.4-3,1.3C1.4,1.4,1.3,1.5,1.2,1.7C0,3.3,0,5.6,1.2,7.2c0.1,0.1,0.2,0.3,0.3,0.4c0.1,0.1,0.2,0.2,0.4,0.3
					c1.5,1.3,3.7,1.3,5.3,0c0.1-0.1,0.3-0.2,0.4-0.3c0.8-0.9,1.2-2,1.2-3.1v0V0H4.6z"/>
			</g>
		</g>
	</g>
</g>
</svg>
